<?xml version="1.0" standalone="no"?>
<!DOCTYPE svg PUBLIC "-//W3C//DTD SVG 20010904//EN"
 "http://www.w3.org/TR/2001/REC-SVG-20010904/DTD/svg10.dtd">
<svg version="1.0" xmlns="http://www.w3.org/2000/svg"
 width="500.000000pt" height="500.000000pt" viewBox="0 0 500.000000 500.000000"
 preserveAspectRatio="xMidYMid meet">

<g transform="translate(0.000000,500.000000) scale(0.100000,-0.100000)"
fill="#256449" stroke="none">
<path d="M2185 4545 c-94 -13 -176 -31 -210 -45 -11 -5 -36 -11 -56 -13 -20
-3 -57 -15 -82 -26 -25 -12 -49 -21 -52 -21 -3 0 -22 -7 -43 -16 -20 -10 -44
-18 -52 -20 -8 -2 -16 -8 -18 -13 -2 -6 -12 -11 -23 -11 -33 0 -259 -124 -259
-143 0 -5 -3 -7 -6 -4 -4 3 -27 -8 -52 -26 l-45 -32 29 -2 c16 -2 94 -8 174
-14 80 -6 173 -13 207 -16 63 -5 82 0 245 68 86 35 321 74 508 83 41 2 82 4
90 5 43 5 279 -29 383 -54 38 -8 77 -13 87 -10 11 3 20 0 24 -10 3 -8 11 -15
17 -15 13 0 222 -81 229 -90 3 -3 19 -12 35 -20 17 -8 56 -29 87 -47 31 -18
63 -33 72 -33 9 0 16 -6 17 -12 0 -7 38 -42 85 -78 131 -100 266 -238 362
-370 57 -78 67 -94 130 -205 56 -99 142 -332 178 -482 9 -40 20 -71 23 -69 6
4 4 -475 -2 -524 -2 -14 -6 -32 -9 -40 -3 -8 -15 -58 -26 -111 -12 -53 -42
-149 -67 -213 -25 -64 -43 -122 -39 -128 4 -7 3 -8 -4 -4 -12 7 -16 -5 -13
-33 2 -7 -2 -10 -7 -7 -10 6 -32 -35 -32 -60 0 -8 -7 -17 -15 -20 -11 -4 -12
-11 -5 -23 10 -20 -4 -41 -27 -41 -7 0 -13 -7 -13 -15 0 -8 -5 -15 -11 -15 -6
0 -9 -7 -5 -15 3 -8 1 -15 -4 -15 -6 0 -10 -10 -10 -22 1 -21 2 -22 14 -5 14
19 36 23 36 7 0 -5 -7 -10 -15 -10 -8 0 -15 -7 -15 -15 0 -8 -7 -15 -15 -15
-8 0 -15 5 -15 10 0 6 -8 5 -20 -2 -11 -7 -20 -16 -20 -20 0 -3 -25 -32 -55
-63 -31 -31 -53 -60 -50 -66 4 -5 -1 -9 -9 -9 -10 0 -16 -9 -16 -24 0 -19 -6
-25 -27 -28 -16 -2 -27 -8 -26 -15 2 -7 -16 -3 -44 12 l-47 24 -2 183 c0 140
-5 197 -18 241 -9 31 -21 57 -27 57 -6 0 -9 6 -6 13 3 7 -1 21 -9 32 -8 10
-14 27 -14 38 0 11 -4 15 -12 11 -7 -4 -8 -3 -4 4 13 21 -5 34 -20 15 -15 -20
-17 -9 -5 22 10 24 -13 76 -31 72 -7 -1 -14 8 -16 20 -2 12 -18 35 -36 51 -18
15 -35 36 -39 45 -3 9 -13 17 -22 17 -8 0 -15 7 -15 16 0 9 -9 18 -20 21 -11
3 -20 11 -20 19 0 8 -6 11 -17 7 -10 -4 -14 -2 -10 4 8 13 -57 73 -78 73 -8 0
-18 6 -22 13 -13 20 -121 97 -136 97 -8 0 -21 7 -28 16 -16 20 -58 38 -81 35
-9 -1 -22 7 -28 18 -11 22 -88 66 -97 57 -3 -3 -17 4 -31 14 -13 11 -35 20
-48 20 -13 0 -24 4 -24 10 0 13 -54 40 -80 40 -11 0 -20 5 -20 11 0 6 -7 9
-15 6 -8 -4 -17 -2 -20 3 -4 6 -32 23 -63 39 -90 45 -127 67 -227 134 -11 8
-47 31 -80 53 -33 21 -80 57 -104 81 -25 23 -48 40 -53 37 -4 -3 -12 5 -17 18
-5 13 -36 52 -68 88 -33 36 -67 79 -76 95 -8 17 -24 39 -34 50 -11 11 -28 39
-39 62 -10 23 -24 43 -30 43 -6 0 -12 10 -12 23 0 12 -12 48 -26 80 -14 32
-26 64 -26 72 0 8 -4 15 -9 15 -4 0 -11 19 -14 43 -4 23 -13 71 -21 107 -9 36
-19 129 -22 207 -6 118 -10 143 -23 147 -31 10 -147 25 -236 31 -100 8 -285
-9 -296 -27 -4 -6 -16 -9 -27 -6 -11 3 -31 -2 -45 -11 -34 -23 -107 -109 -107
-127 0 -9 -5 -12 -12 -8 -8 5 -9 0 -6 -14 4 -14 1 -22 -6 -22 -14 0 -76 -67
-76 -81 0 -5 -7 -12 -15 -15 -8 -4 -15 -12 -15 -20 0 -8 -5 -14 -10 -14 -17 0
-71 -92 -65 -111 4 -11 -3 -24 -18 -36 -13 -10 -22 -24 -19 -31 2 -6 -3 -12
-11 -12 -18 0 -42 -51 -28 -59 6 -4 -1 -19 -18 -36 -18 -19 -26 -37 -23 -51 3
-15 -3 -26 -18 -34 -19 -10 -21 -18 -16 -50 4 -27 2 -41 -9 -50 -8 -7 -15 -18
-15 -26 0 -7 -7 -17 -16 -22 -9 -5 -17 -29 -21 -65 -3 -31 -10 -54 -15 -51 -5
3 -8 0 -7 -7 4 -28 -14 -98 -23 -93 -6 4 -8 -5 -3 -25 4 -20 2 -40 -7 -54 -7
-13 -13 -51 -13 -89 0 -38 -4 -68 -8 -68 -4 0 -8 -17 -8 -37 0 -21 -2 -87 -3
-148 -3 -116 3 -188 28 -319 9 -43 13 -82 10 -88 -3 -5 -1 -14 4 -21 5 -7 13
-39 17 -71 4 -33 13 -69 20 -80 8 -12 15 -40 16 -64 2 -24 7 -46 11 -48 12 -8
39 -75 33 -84 -3 -5 2 -15 10 -24 8 -8 18 -30 22 -48 10 -53 159 -317 185
-326 4 -2 16 -18 24 -34 16 -31 26 -45 55 -77 9 -10 18 -24 20 -30 6 -18 161
-184 207 -221 23 -19 60 -51 81 -70 21 -19 48 -42 61 -50 12 -8 33 -23 47 -34
13 -10 27 -16 30 -13 3 3 16 -7 30 -24 14 -16 29 -29 35 -29 5 0 22 -9 37 -19
39 -28 123 -72 128 -67 3 2 13 -4 22 -13 10 -10 40 -26 67 -36 27 -9 56 -20
64 -23 8 -3 19 -4 24 -3 5 1 17 -6 27 -15 11 -10 27 -18 37 -19 9 -1 30 -7 45
-14 16 -6 37 -11 48 -11 10 0 19 -4 19 -8 0 -4 35 -14 78 -21 42 -8 82 -17 87
-21 14 -11 70 -20 140 -24 33 -2 94 -9 135 -16 132 -21 506 9 610 49 35 14
110 33 140 36 38 4 80 23 80 36 0 6 9 9 20 6 26 -7 171 53 163 66 -3 6 -1 7 5
3 16 -10 275 137 357 202 43 34 21 42 -125 42 -69 0 -165 6 -215 14 -49 8 -99
13 -110 12 -32 -3 -95 -38 -88 -49 4 -6 -1 -8 -11 -4 -15 6 -195 -45 -266 -76
-14 -5 -37 -9 -52 -8 -15 1 -33 -1 -39 -5 -16 -9 -42 -11 -256 -20 -146 -5
-205 -3 -300 10 -131 19 -141 21 -163 28 -8 3 -42 13 -75 23 -170 50 -258 87
-422 179 -67 38 -209 144 -279 209 -15 14 -31 24 -36 21 -4 -3 -8 2 -8 11 0 9
-3 14 -7 12 -8 -4 -44 29 -42 39 0 3 -2 8 -5 12 -3 3 -6 0 -6 -7 0 -7 -5 -9
-10 -6 -6 4 -9 14 -8 23 2 10 -7 21 -19 27 -13 5 -23 15 -23 22 0 7 -7 13 -16
13 -9 0 -14 6 -11 13 2 6 -19 44 -48 82 -28 39 -64 91 -79 118 -15 26 -32 47
-37 47 -5 0 -8 3 -8 8 3 17 -2 29 -26 56 -14 16 -25 40 -25 53 0 12 -4 23 -8
23 -5 0 -23 43 -41 95 -18 52 -37 95 -42 95 -5 0 -9 13 -9 30 0 16 -6 49 -14
72 -27 83 -58 305 -58 418 0 200 34 499 62 535 4 6 17 39 30 75 24 72 55 147
70 170 6 8 16 26 22 40 27 56 94 159 149 232 62 81 67 93 47 101 -7 3 -2 6 12
6 15 1 35 13 50 32 51 62 122 86 163 55 13 -10 17 -28 17 -73 0 -32 -5 -64
-11 -70 -19 -19 0 -193 27 -245 8 -16 12 -39 8 -53 -5 -19 -2 -25 10 -25 12 0
15 -6 10 -25 -3 -14 -2 -25 3 -25 6 0 16 -18 23 -40 7 -22 17 -40 22 -40 4 0
8 -8 8 -18 0 -26 45 -86 114 -152 83 -80 94 -89 102 -82 4 4 4 2 1 -4 -7 -12
25 -46 39 -43 5 2 28 -16 52 -39 24 -23 52 -42 64 -42 11 0 31 -11 44 -25 13
-15 34 -25 49 -25 18 0 29 -6 32 -20 3 -11 12 -20 21 -20 8 0 53 -20 99 -45
46 -25 83 -42 83 -39 0 4 8 0 18 -9 24 -22 145 -75 160 -70 6 3 12 0 12 -5 0
-13 141 -92 164 -92 9 0 19 -7 22 -15 4 -8 10 -15 15 -15 5 0 21 -10 35 -22
14 -13 31 -24 37 -24 7 -1 17 -2 23 -3 7 0 14 -10 17 -21 3 -11 18 -25 34 -32
15 -7 35 -19 43 -28 8 -8 35 -32 60 -52 76 -63 117 -102 135 -130 9 -15 21
-25 26 -22 5 3 9 0 9 -6 0 -6 6 -17 13 -25 6 -7 37 -46 67 -86 30 -40 65 -82
78 -94 12 -12 22 -32 22 -43 0 -11 3 -22 8 -24 6 -3 34 -58 77 -153 33 -75 64
-175 80 -262 9 -48 22 -91 28 -95 9 -6 8 -11 -3 -18 -11 -7 -11 -10 -2 -10 9
0 10 -5 2 -19 -5 -11 -10 -39 -10 -63 0 -87 8 -89 296 -102 122 -5 296 9 332
28 54 28 236 257 295 370 12 24 34 66 50 94 49 92 77 152 77 162 0 6 4 18 9
28 45 82 89 219 132 412 17 76 22 140 26 323 3 125 2 235 -2 245 -4 9 -9 44
-10 78 -6 135 -146 580 -197 623 -9 8 -15 18 -12 23 3 4 -4 21 -15 37 -11 15
-18 31 -14 35 3 3 1 6 -5 6 -7 0 -12 7 -12 16 0 39 -213 331 -284 391 -18 16
-39 38 -45 51 -8 14 -18 21 -27 18 -8 -3 -14 1 -14 8 0 17 -119 128 -130 121
-4 -2 -16 8 -27 23 -11 15 -46 40 -77 56 -31 16 -56 33 -56 37 0 4 -10 9 -23
13 -13 3 -34 15 -48 27 -32 28 -101 64 -116 61 -7 -2 -13 1 -13 7 0 13 -125
71 -154 71 -14 0 -26 4 -26 9 0 9 -31 22 -60 26 -8 1 -31 9 -50 18 -43 19
-148 46 -187 49 -15 1 -33 6 -40 10 -46 35 -524 50 -718 23z m-848 -531 c-3
-3 -12 -4 -19 -1 -8 3 -5 6 6 6 11 1 17 -2 13 -5z m-637 -554 c0 -5 -5 -10
-11 -10 -5 0 -7 5 -4 10 3 6 8 10 11 10 2 0 4 -4 4 -10z m2145 -1010 c-3 -5
-10 -10 -16 -10 -5 0 -9 5 -9 10 0 6 7 10 16 10 8 0 12 -4 9 -10z m525 -340
c0 -5 -5 -10 -11 -10 -5 0 -7 5 -4 10 3 6 8 10 11 10 2 0 4 -4 4 -10z"/>
<path d="M2418 4138 c-3 -7 -38 -12 -104 -12 -106 -2 -294 -40 -294 -61 0 -13
88 -47 101 -39 5 3 9 2 9 -3 0 -11 60 -37 67 -29 3 3 12 -2 19 -12 16 -23 89
-22 174 2 51 15 82 17 150 11 123 -10 140 -12 189 -30 24 -8 59 -15 77 -15 19
0 34 -5 34 -11 0 -7 10 -9 25 -5 18 5 25 2 25 -7 0 -8 21 -22 48 -32 123 -45
152 -67 152 -119 0 -58 -61 -84 -121 -53 -42 23 -121 47 -131 41 -5 -3 -17 0
-26 8 -31 27 -294 90 -309 74 -7 -7 16 -36 28 -36 14 0 130 -74 233 -148 48
-35 109 -75 135 -88 39 -21 46 -23 49 -10 4 17 18 21 24 7 2 -4 62 -5 133 -2
72 4 132 4 135 1 7 -8 88 -32 119 -36 35 -4 81 -25 81 -36 0 -5 9 -6 20 -3 14
5 20 2 20 -9 0 -9 5 -16 10 -16 6 0 15 -10 20 -22 5 -13 18 -36 29 -53 12 -16
21 -39 21 -51 0 -28 -31 -54 -65 -54 -28 0 -132 46 -150 66 -13 15 -126 53
-180 61 -57 7 -63 -8 -17 -47 20 -17 67 -61 105 -96 37 -35 71 -64 75 -64 3 0
29 -24 57 -53 27 -29 58 -56 68 -60 9 -3 17 -11 17 -16 0 -17 110 -116 141
-127 16 -5 26 -13 23 -17 -4 -4 3 -19 17 -34 13 -14 17 -22 9 -18 -8 5 -3 -5
11 -22 14 -17 32 -45 39 -63 12 -28 11 -37 -1 -59 -11 -20 -24 -27 -56 -29
-38 -3 -45 1 -99 52 -32 31 -61 56 -66 56 -4 0 -8 5 -8 12 0 17 -122 138 -133
131 -4 -3 -11 4 -14 16 -3 11 -9 18 -14 15 -5 -3 -12 3 -16 13 -10 30 -102
113 -124 113 -15 0 -19 4 -15 16 5 13 2 15 -14 11 -21 -5 -29 8 -9 15 14 5
-160 158 -178 158 -43 0 25 -250 83 -308 8 -7 14 -22 14 -33 0 -11 6 -22 14
-25 16 -6 19 -59 4 -86 -26 -52 -100 -41 -146 20 -15 20 -30 39 -34 40 -5 2
-8 10 -8 17 0 8 -9 20 -21 28 -14 11 -17 17 -8 22 8 6 7 10 -5 17 -9 5 -16 17
-16 27 0 10 -3 21 -6 24 -4 4 -8 21 -9 39 -1 18 -7 67 -14 108 -6 42 -9 108
-6 150 3 41 2 80 -2 85 -17 23 -72 55 -95 56 -12 0 -17 3 -10 6 28 11 -317
232 -352 225 -10 -2 -16 0 -12 6 7 11 -41 35 -55 27 -21 -14 -4 -133 36 -250
26 -75 103 -221 136 -256 16 -17 29 -35 29 -40 0 -5 4 -9 10 -9 5 0 9 -3 8 -7
-1 -5 2 -25 6 -45 17 -78 -13 -110 -79 -88 -57 19 -182 210 -247 380 -47 119
-58 195 -58 382 0 13 -8 18 -26 18 -14 0 -23 4 -19 9 10 18 -201 98 -229 88
-13 -5 -16 -24 -15 -114 1 -59 5 -112 9 -118 4 -5 10 -35 13 -66 3 -30 13 -73
23 -95 9 -21 19 -49 20 -61 6 -52 113 -239 176 -308 14 -16 41 -47 58 -67 18
-21 36 -35 41 -32 5 3 9 -2 9 -11 0 -8 8 -18 18 -22 9 -3 43 -28 74 -54 31
-27 61 -49 66 -49 5 0 16 -10 25 -22 8 -13 41 -36 73 -51 33 -16 66 -33 74
-38 48 -28 97 -49 116 -49 12 0 24 -6 27 -14 3 -7 21 -16 40 -20 18 -3 44 -17
57 -31 14 -15 39 -27 66 -31 24 -3 44 -10 44 -14 0 -5 15 -12 32 -16 18 -3 38
-14 45 -23 6 -9 34 -27 62 -41 28 -13 51 -27 51 -31 0 -5 6 -6 14 -3 7 3 24
-8 38 -23 13 -15 31 -29 39 -31 7 -2 19 -9 24 -16 6 -7 42 -30 80 -51 39 -21
77 -46 85 -55 8 -9 54 -49 102 -88 74 -62 178 -176 213 -233 33 -54 86 -163
105 -219 12 -36 25 -72 27 -80 13 -35 19 -81 22 -165 l2 -50 19 24 c11 13 20
28 20 35 0 6 9 17 20 24 11 7 20 16 20 22 0 5 13 31 28 57 16 27 27 54 24 61
-2 6 3 15 12 18 9 3 16 14 16 24 0 10 4 20 8 22 18 7 79 174 98 268 3 14 9 34
14 45 45 110 55 430 21 650 -19 124 -59 257 -75 248 -5 -4 -7 0 -3 10 6 17
-13 77 -25 77 -4 0 -8 8 -8 18 0 22 -52 133 -73 153 -8 9 -23 33 -31 53 -10
24 -20 35 -27 30 -7 -4 -10 -1 -7 7 4 12 -29 65 -72 116 -5 7 -10 17 -10 23 0
6 -4 8 -10 5 -5 -3 -10 1 -10 10 0 22 -204 219 -250 241 -21 11 -36 22 -34 26
3 5 -3 8 -13 8 -9 0 -26 11 -38 25 -11 14 -45 39 -75 55 -134 72 -190 100
-197 98 -5 -1 -19 4 -31 11 -13 7 -26 10 -29 7 -3 -3 -11 1 -17 8 -17 23 -158
65 -269 81 -56 8 -130 20 -163 25 -85 14 -211 13 -216 -2z m-273 -58 c3 -5 -1
-10 -9 -10 -9 0 -16 5 -16 10 0 6 4 10 9 10 6 0 13 -4 16 -10z m-275 -190 c0
-5 -4 -10 -10 -10 -5 0 -10 5 -10 10 0 6 5 10 10 10 6 0 10 -4 10 -10z m1860
-864 c0 -3 -4 -8 -10 -11 -5 -3 -10 -1 -10 4 0 6 5 11 10 11 6 0 10 -2 10 -4z"/>
<path d="M1124 3372 c-76 -122 -116 -205 -101 -214 11 -7 3 -12 -14 -10 -4 1
-5 -7 -2 -17 2 -9 -3 -23 -11 -30 -9 -8 -16 -22 -16 -32 0 -10 -4 -21 -10 -24
-5 -3 -10 -17 -10 -31 0 -13 -4 -24 -10 -24 -5 0 -7 -7 -4 -15 4 -8 3 -23 -2
-32 -7 -17 -8 -25 -12 -85 -1 -15 -9 -33 -17 -41 -11 -12 -12 -16 -2 -20 9 -3
9 -8 -2 -21 -10 -12 -11 -22 -4 -39 8 -16 7 -26 -3 -35 -19 -17 -23 -154 -9
-297 4 -38 7 -80 6 -93 0 -13 4 -32 9 -42 6 -10 12 -47 15 -82 2 -34 9 -64 15
-66 5 -2 10 -18 10 -35 1 -85 117 -343 217 -484 63 -87 118 -153 129 -153 9 0
55 -49 77 -82 9 -16 21 -27 25 -25 4 1 37 -26 72 -60 35 -35 71 -63 80 -63 9
0 25 -9 35 -20 10 -11 24 -20 32 -20 7 0 16 -7 19 -15 7 -17 83 -65 103 -65 7
0 19 -7 28 -16 9 -8 22 -13 29 -10 8 3 14 -1 14 -9 0 -8 8 -16 18 -17 9 0 22
-2 29 -2 6 -1 15 -4 19 -8 4 -4 17 -5 28 -2 14 3 28 -2 40 -15 11 -12 25 -21
33 -21 8 0 31 -9 53 -20 22 -11 52 -21 68 -23 15 -2 32 -6 38 -9 18 -12 240
-38 319 -38 44 0 88 0 98 0 97 -2 136 1 183 15 24 7 53 11 63 8 10 -3 30 2 42
10 20 12 124 35 124 26 0 -1 10 3 23 10 27 15 29 31 2 31 -11 0 -28 4 -38 9
-59 32 -167 81 -179 81 -7 0 -18 -10 -23 -22 l-9 -23 0 23 c-1 20 -5 22 -33
17 -18 -3 -49 -10 -68 -15 -53 -15 -227 -12 -299 5 -36 9 -72 15 -80 13 -9 -1
-31 6 -50 16 -18 10 -56 25 -84 33 -41 12 -51 12 -58 1 -8 -12 -13 -4 -10 14
0 4 -21 19 -49 33 -56 28 -70 48 -70 98 0 48 19 61 78 53 78 -10 86 -12 110
-24 54 -29 63 -32 81 -32 10 0 21 -7 25 -15 3 -8 16 -15 28 -15 13 0 46 -7 73
-16 75 -23 153 -34 178 -25 l21 8 -21 12 c-12 6 -28 11 -36 11 -8 0 -18 8 -21
17 -6 14 -9 15 -15 4 -7 -11 -11 -9 -21 8 -7 13 -17 20 -26 17 -8 -3 -14 -1
-14 3 0 5 -12 14 -27 19 -16 6 -22 11 -15 11 8 1 -19 23 -60 50 -40 27 -76 48
-80 48 -3 -1 -15 10 -27 24 -32 42 -79 60 -126 49 -22 -5 -56 -10 -75 -10 -20
0 -40 -4 -45 -9 -12 -11 -209 31 -263 56 -20 9 -60 31 -87 48 -28 17 -56 30
-63 27 -7 -2 -12 0 -10 5 1 4 -6 22 -15 40 -22 41 -21 49 4 84 25 35 67 39
110 8 16 -11 29 -16 29 -10 0 6 9 11 20 11 12 0 20 -7 20 -18 0 -19 33 -52 52
-52 6 0 19 -6 27 -14 23 -19 144 -43 149 -28 2 6 10 8 19 5 11 -4 14 -2 9 5
-4 7 -14 12 -22 12 -8 0 -14 5 -14 10 0 6 -9 10 -20 10 -11 0 -20 7 -20 15 0
8 -4 14 -8 13 -4 -2 -23 14 -41 35 -19 21 -36 35 -39 33 -3 -3 -12 3 -21 13
-9 10 -25 20 -36 22 -11 3 -21 13 -23 24 -5 25 -41 65 -56 62 -6 -1 -10 4 -9
11 2 6 -4 12 -12 12 -8 0 -15 5 -15 11 0 14 -61 75 -72 72 -4 -2 -8 3 -8 11 0
7 -20 32 -45 55 -24 22 -52 52 -61 66 -9 14 -23 25 -30 25 -8 0 -14 4 -14 10
0 5 -6 9 -12 7 -7 -1 -12 4 -10 11 3 15 -25 46 -53 57 -18 7 -18 9 -2 12 10 3
17 14 17 26 0 12 10 34 23 48 39 44 89 22 186 -83 24 -26 47 -45 52 -42 5 3 9
-1 9 -8 0 -14 208 -222 305 -304 33 -28 82 -72 109 -97 27 -26 52 -44 57 -41
5 3 8 2 7 -3 -2 -4 1 -9 7 -10 14 -4 9 94 -8 159 -20 72 -35 100 -49 92 -7 -5
-9 0 -6 14 4 15 0 25 -10 32 -10 5 -14 10 -9 10 16 0 -24 59 -44 65 -17 6 -19
9 -8 16 12 8 12 10 0 18 -11 7 -7 15 20 40 18 17 41 31 51 31 10 0 18 5 18 10
0 17 25 11 38 -10 7 -11 19 -20 27 -20 8 0 15 -6 15 -14 0 -7 13 -37 28 -67
16 -30 41 -85 57 -124 16 -38 32 -74 37 -79 4 -6 8 -27 8 -47 0 -21 5 -61 12
-89 8 -36 9 -54 1 -58 -5 -4 -13 -28 -17 -53 -7 -46 -6 -47 36 -81 67 -54 165
-118 182 -118 8 0 16 -3 18 -7 7 -17 88 -73 163 -112 44 -23 84 -47 90 -52 19
-19 42 -9 48 20 15 71 -46 264 -99 318 -14 14 -20 30 -17 43 4 16 2 19 -11 14
-13 -5 -16 0 -16 25 0 21 -5 31 -16 31 -8 0 -12 5 -8 11 3 6 -11 35 -31 65
-34 49 -39 53 -51 37 -23 -31 -5 57 20 94 18 28 27 33 61 33 38 0 42 -3 75
-55 19 -30 38 -55 43 -55 4 0 7 -7 7 -15 0 -8 5 -15 10 -15 6 0 10 -8 10 -18
0 -10 4 -22 9 -28 19 -22 102 -187 126 -255 22 -61 28 -97 32 -199 5 -118 14
-157 34 -144 5 3 9 1 9 -4 0 -6 12 -13 27 -17 15 -3 46 -15 70 -26 23 -10 51
-19 62 -19 10 0 21 -5 23 -10 2 -6 17 -12 33 -13 l30 -2 -3 80 c-3 108 -17
183 -53 290 -31 91 -46 126 -59 135 -4 3 -17 25 -29 50 -31 64 -81 142 -113
176 -16 16 -28 34 -28 41 0 6 -18 27 -40 46 -22 19 -40 39 -40 45 0 7 -3 12
-7 12 -5 0 -30 20 -58 45 -27 24 -54 45 -59 45 -5 0 -21 12 -35 28 -15 16 -34
26 -45 24 -14 -3 -17 0 -13 11 4 11 -3 17 -24 22 -16 4 -29 12 -29 18 0 14
-72 57 -94 57 -9 0 -16 6 -16 13 0 12 -101 74 -150 91 -14 5 -37 17 -52 27
-14 11 -29 19 -33 19 -3 0 -63 27 -133 61 -70 34 -141 63 -159 66 -18 3 -33
11 -33 18 0 6 -26 25 -57 41 -32 15 -59 32 -61 36 -2 4 -10 8 -18 8 -8 0 -14
4 -14 8 0 5 -24 25 -52 45 -29 20 -74 57 -100 82 -26 25 -51 45 -55 45 -5 0
-16 13 -26 29 -9 16 -29 40 -45 53 -15 13 -35 37 -44 54 -10 16 -22 28 -28 26
-5 -1 -9 1 -8 5 4 12 -62 123 -72 123 -5 0 -17 14 -26 31 -8 17 -11 28 -5 25
15 -10 14 14 -3 46 -8 14 -17 45 -21 67 -4 27 -12 41 -22 41 -12 0 -13 3 -4
14 12 14 8 47 -11 98 -18 48 -34 41 -84 -40z m-187 -644 c-3 -8 -6 -5 -6 6 -1
11 2 17 5 13 3 -3 4 -12 1 -19z m353 -448 c0 -5 -4 -10 -10 -10 -5 0 -10 5
-10 10 0 6 5 10 10 10 6 0 10 -4 10 -10z m1590 -380 c0 -5 -4 -10 -10 -10 -5
0 -10 5 -10 10 0 6 5 10 10 10 6 0 10 -4 10 -10z m-1145 -190 c-3 -5 -12 -10
-18 -10 -7 0 -6 4 3 10 19 12 23 12 15 0z m515 -43 c0 -10 -4 -15 -10 -12 -5
3 -10 18 -10 33 0 21 2 24 10 12 5 -8 10 -23 10 -33z"/>
<path d="M2248 463 c7 -3 16 -2 19 1 4 3 -2 6 -13 5 -11 0 -14 -3 -6 -6z"/>
</g>
</svg>
